<?xml version="1.0" standalone="no"?>
<!DOCTYPE svg PUBLIC "-//W3C//DTD SVG 20010904//EN"
 "http://www.w3.org/TR/2001/REC-SVG-20010904/DTD/svg10.dtd">
<svg version="1.0" xmlns="http://www.w3.org/2000/svg"
 width="220.000000pt" height="220.000000pt" viewBox="0 0 220.000000 220.000000"
 preserveAspectRatio="xMidYMid meet">

<g transform="translate(0.000000,220.000000) scale(0.100000,-0.100000)"
fill="#000000" stroke="none">
<path d="M0 1100 l0 -1100 902 0 902 0 -22 20 c-12 11 -28 20 -36 20 -8 0 -16
4 -18 9 -1 4 -25 18 -52 30 -39 17 -51 19 -58 9 -4 -7 -8 -9 -8 -4 0 5 -6 4
-12 -1 -7 -5 -22 -7 -33 -3 -11 4 -30 10 -42 15 -29 10 -38 36 -17 52 9 7 67
29 128 49 112 37 204 74 353 145 58 28 94 53 123 87 40 45 42 49 37 98 -3 28
-14 69 -25 90 -11 22 -23 54 -27 72 l-7 34 48 -7 c26 -3 51 -8 56 -11 4 -3 8
333 8 745 l0 751 -1100 0 -1100 0 0 -1100z m903 445 c-14 -11 -13 -13 10 -17
15 -3 24 -1 21 3 -3 5 0 9 5 9 6 0 11 -7 11 -17 0 -9 3 -14 6 -10 9 9 36 -21
29 -33 -3 -5 -1 -10 4 -10 6 0 11 -5 11 -11 0 -5 -6 -7 -12 -4 -7 3 -3 -2 10
-11 12 -9 22 -20 22 -24 0 -7 -91 -50 -106 -50 -4 0 1 7 12 15 18 14 17 14
-11 9 -29 -5 -31 -3 -58 59 l-29 65 -106 -43 c-58 -25 -108 -42 -111 -40 -4 5
83 45 159 74 31 12 45 22 45 35 0 28 63 48 86 27 16 -13 17 -16 2 -26z m-98
-266 c-39 -39 -79 -75 -90 -80 -11 -6 18 26 64 71 46 44 86 80 90 80 3 0 -26
-32 -64 -71z m790 -57 c44 -7 45 -9 20 -64 -13 -29 -27 -80 -31 -113 l-7 -60
-13 65 c-15 74 -17 142 -7 191 6 32 7 33 13 9 3 -14 14 -26 25 -28z m57 -443
c-4 -34 -6 -37 -54 -48 -28 -6 -52 -10 -54 -8 -2 1 3 23 11 47 7 25 14 41 15
35 2 -16 28 58 29 83 1 25 11 28 29 10 9 -9 12 -8 14 8 1 10 4 -6 7 -36 3 -30
4 -71 3 -91z m-113 21 c-10 -68 -15 -83 -33 -90 -26 -9 -28 -8 -20 14 5 12 9
14 14 6 4 -6 15 27 26 74 10 47 20 83 22 81 2 -1 -2 -40 -9 -85z m-253 -320
c26 6 38 4 54 -10 13 -12 17 -21 10 -25 -6 -3 -8 -10 -6 -14 3 -4 -18 -18 -47
-30 -29 -13 -65 -29 -82 -37 -16 -7 -82 -23 -145 -34 -63 -11 -146 -28 -185
-39 -38 -10 -108 -27 -155 -36 -60 -12 -95 -25 -120 -44 -19 -15 -46 -34 -60
-41 -26 -14 -157 -18 -315 -10 -44 2 -95 0 -113 -4 -45 -11 -41 8 8 39 54 34
78 43 157 55 37 6 73 16 80 22 7 5 20 8 28 4 9 -3 13 -2 10 4 -3 6 2 10 12 10
11 0 23 4 29 9 10 10 193 41 242 41 17 0 48 9 68 20 20 12 39 19 41 16 3 -3
12 1 20 9 7 8 33 19 56 25 23 6 49 14 57 19 14 7 120 29 245 49 28 5 56 5 64
2 7 -4 29 -4 47 0z m-923 -121 c-46 -4 -120 -4 -165 0 -73 7 -62 8 82 8 144 0
155 -1 83 -8z"/>
<path d="M957 1439 c7 -7 15 -10 18 -7 3 3 -2 9 -12 12 -14 6 -15 5 -6 -5z"/>
<path d="M2192 60 c0 -14 2 -19 5 -12 2 6 2 18 0 25 -3 6 -5 1 -5 -13z"/>
</g>
</svg>
